<?xml version="1.0" encoding="utf-8"?>
<!-- Generator: Adobe Illustrator 27.2.0, SVG Export Plug-In . SVG Version: 6.00 Build 0)  -->
<svg version="1.1" id="Layer_1" xmlns="http://www.w3.org/2000/svg" xmlns:xlink="http://www.w3.org/1999/xlink" x="0px" y="0px"
	 viewBox="0 0 20 20" style="enable-background:new 0 0 20 20;" xml:space="preserve">
<style type="text/css">
	.st0{fill:#FFFFFF;}
</style>
<g id="Layer_1_00000147208281376765564620000006839222940559473342_">
	<path class="st0" d="M2.2,6"/>
	<path class="st0" d="M8.9,11.7"/>
	<path class="st0" d="M6.9,1"/>
	<path class="st0" d="M8.7,0.8"/>
	<path class="st0" d="M16,19.3"/>
	<path class="st0" d="M2.2,5.5"/>
	<path class="st0" d="M2.2,5.4"/>
	<polygon class="st0" points="5,0.9 5,0.9 5,0.9 	"/>
	<path class="st0" d="M17.8,7.7c-0.6-0.8-1.5-1.5-2.4-2.2l0,0.5c0.1,0.1,0.2,0.1,0.3,0.2c-0.1,0.1-0.2,0.3-0.3,0.4l0,0.7
		c0.2-0.2,0.5-0.5,0.7-0.8c0.5,0.4,1,0.8,1.3,1.3c-0.5,0.6-1.2,1.2-1.9,1.7l0,0.5c0.1-0.1,0.3-0.2,0.4-0.3c1.8,2.8,0.7,6.1-1.5,7.8
		l-1.4-1.2c0.8-0.6,1.4-1.5,1.7-2.5c0.3-1.1,0.1-2.2-0.4-3.1c0.3-0.2,0.6-0.3,0.9-0.5c0.1-0.1,0.2-0.1,0.3-0.2l0-0.5
		c-1.2,0.8-2.6,1.5-3.9,1.8c-0.6,0.1-1.4,0.3-2.3,0.2V9.9c0,0,0,0,0.1,0c2.3,0,4.7-1,6.1-2.5l0-0.7C14,8.4,11.6,9.5,9.2,9.5V2.3
		C10,2.9,10.6,3.6,11,4.3L11,4.3l0.1,0c1.4,0.2,3,0.9,4.2,1.7l0-0.5c-1.2-0.8-2.6-1.4-4-1.6c-0.2-0.3-0.4-0.6-0.7-0.9h1l0,0
		c0.6-0.1,1.1-0.6,1.2-1.1H13l0,0c0.6-0.2,1.1-0.6,1.2-1.2l0-0.2l-9,0c-0.6,0-1.1,0-1.7,0.1h0C2,0.9,0.4,2.3,0.5,4.1l0,0.2l0.2,0
		c0.3,0,0.7,0,1,0c0.1,0.5,0.3,0.9,0.7,1.3C2.1,7,2.3,8.3,3.2,9.5c0.9,1.2,2.3,2,4.1,2.3c1.7,0.4,3.1,0.2,4.1,0c0.5,1,0.1,2.3-1,3
		l-0.2,0.1l5.7,4.6l0.2-0.1c1.9-1.5,3.1-3.5,3.3-5.8C19.7,11.5,19.1,9.4,17.8,7.7z M11.6,2.7h-1.3C10,2.4,9.7,2.2,9.4,2h2.9
		C12.2,2.3,11.9,2.6,11.6,2.7z M2.2,4.3c0.7,0,1.5,0,2.2,0l0,1.8C3.9,6,3.4,5.8,3,5.5C2.6,5.1,2.3,4.7,2.2,4.3z M4.5,10.2
		C4.1,10,3.8,9.7,3.6,9.3c-0.7-1-1-2.2-0.7-3.4c0.5,0.3,1.1,0.5,1.7,0.5V10.2z M4.5,3.8c-1.2,0-2.4,0-3.6,0c0-1.5,1.4-2.6,2.7-2.8
		c0.3,0,0.6-0.1,0.9-0.1V3.8z M5,0.9L5,0.9c0.1,0,0.1,0,0.2,0h0c0.5,0,1,0.1,1.5,0.2C8.2,2,9,3.5,8.6,5C8.2,6.4,6.8,7.5,5,7.8V0.9
		C5,0.9,5,0.9,5,0.9L5,0.9z M8.1,1.7C8.3,1.8,8.5,1.9,8.7,2v0.5C8.5,2.2,8.3,1.9,8.1,1.7z M8.7,11.6L8.7,11.6
		c-0.4,0-0.8-0.1-1.3-0.2l0,0C6.5,11.3,5.7,11,5,10.6V8.2c1-0.2,1.9-0.5,2.7-1.1c0.4-0.3,0.8-0.8,1.1-1.2V11.6z M8.8,1.6
		c-0.1,0-0.1-0.1-0.2-0.1C8.2,1.2,7.8,1.1,7.4,0.9l6.3,0c-0.1,0.3-0.4,0.5-0.7,0.6H8.8z M12.5,16.2L11,15c0.5-0.4,0.9-0.9,1.1-1.5
		c0.2-0.6,0.1-1.3-0.1-1.8c0.6-0.2,1.2-0.4,1.8-0.6C14.8,13,13.9,15.1,12.5,16.2z M16,19L14.7,18c1.2-1,2.1-2.3,2.4-3.8
		c0.3-1.6,0-3.2-0.9-4.5c0.6-0.4,1.1-0.9,1.5-1.4C19.8,11.3,19.7,16,16,19z"/>
	<path class="st0" d="M8.9,9.7"/>
	<path class="st0" d="M5.1,0.9H4.9v0C5,0.9,5.1,0.9,5.1,0.9z"/>
	<path class="st0" d="M6.1,1.9L6.1,1.9C5.7,2,5.5,2.2,5.5,2.5S5.7,3,6.1,3h0c0.3,0,0.6-0.2,0.6-0.5S6.5,1.9,6.1,1.9z M6.1,2.6
		C6,2.6,6,2.5,6,2.5c0,0,0-0.1,0.2-0.1c0.1,0,0.2,0.1,0.2,0.1S6.2,2.6,6.1,2.6z"/>
</g>
</svg>
