<svg xmlns="http://www.w3.org/2000/svg" viewBox="0 0 404 489.4" xml:space="preserve"><path d="M363.4 189.2c-27.7-44-82.3-81.9-133.5-93-3.8-7.6-8.6-15.2-14.2-22.5h20l.6-.1c12.4-3 22.2-14.3 24-26.9h4.3l.7-.2c12.8-4 22.7-16 24.1-29.3l.6-5.5-186.6-.8c-11.5-.6-23.2.3-34.8 2.6h-.2C35.6 21.7 2.5 54.2 5.3 98.4l.3 4.8 4.8-.1c7-.2 14-.3 21.1-.4 1.3 12 6.3 23.2 14.2 32.3-7.7 34.6-2.3 68.9 15.4 96.9 18.4 29.2 48.1 48.8 85.8 56.8 34.5 9 65.1 5.2 85.9-.2 11.3 25.3 2.6 57.3-20.5 72.9l-5.1 3.4 118.4 113.8 3.4-3.2c39.1-36.5 63.6-86.9 68.8-141.8 4.9-51.3-7.7-104-34.4-144.4zM40.9 103.1c15.5-.2 31.1-.3 46.2-.2l.1 43.4c-11.4-.7-22.5-5.5-31.1-13.6-8.4-7.9-13.7-18.3-15.2-29.6zm47.3 147.7c-7.5-6.7-14-14.4-19.4-23-15.4-24.3-20.7-53.9-15.4-84.1 10.1 7.8 22.4 12.2 34.8 12.6v94.5zm0-158c-24.3 0-49.8.2-74.2.7.1-36.6 28.1-63.2 55.7-70.1 6.3-1.2 12.4-2 18.5-2.4v71.8zm133.9 10.5 1.1 2.2 2.5.5c32.4 6.5 66.5 24.4 93.7 47.9-25.5 46.5-80.9 78.5-134.1 78V56c16.8 14.8 29.5 32.1 36.8 47.3zm12.4-39.5h-26.9c-5.3-6-11.1-11.7-17.3-17h59.8c-1.7 7.8-7.9 14.9-15.6 17zM98.2 20.9c1.4 0 2.7.1 4 .1h.1c10.8.6 21.1 2.5 30.8 5.5 32.6 22 47.9 58 39.8 94.2-8.1 36.4-36.5 62.9-74.6 70.4V20.9zm77 264.1c-8.4-.7-17.1-2.2-26.1-4.5l-.2-.1c-19.3-4.1-36.4-11.4-50.6-21.6v-57.7c21.3-3.8 40.2-13.1 55.1-27.1 9.2-8.6 16.6-18.7 21.9-29.8V285zm0-225.6c-3.5-7.1-7.8-13.8-13-20 4.5 2.7 8.9 5.5 13 8.6v11.4zm-1.7-25.3c-8.2-5.3-16.6-9.8-25.3-13.3l130 .6c-2.8 7.6-9.2 13.3-15.4 15.4h-85.5c-1.2-.9-2.5-1.8-3.8-2.7zm58.6 245.8c-12.2 3.3-28.4 6.2-46.9 5.7v-43.7h1.2c55.5 0 113-33 140.5-81.1 10.5 10 19.7 20.7 27.1 32-26.2 38.5-77.2 75-121.9 87.1zm21.9 118-31.1-30c11-9 19-21.7 22.8-36.2 4-15.1 2.9-30.8-3-44.7 11.8-3.8 24.1-9.2 36.3-15.9 22.7 47.8 4.8 99.6-25 126.8zm37.2 35.8-29.9-28.8c17-15.7 29.3-37.4 34.8-61.5 6-26.3 3-53.5-8.4-77.1 6.6-4 13.2-8.3 19.6-12.9 5-3.6 9.8-7.4 14.5-11.3 38 68.1 15 149.6-30.6 191.6zm35.1 33.8-27.9-26.8c25.3-23.5 43.4-57.5 49.9-93.7 6.9-38.9.2-78.3-18.8-111.5 11.8-10.7 22.2-22.1 30.4-33.5 44.5 73.6 43.9 189.8-33.6 265.5z"/><path d="M101 20.5h-4v-.1c1.4 0 2.7 0 4 .1zM115.9 46.7h-.2c-8.9.3-13.5 7.2-13.5 13.8 0 6.6 4.6 13.4 13.5 13.8h.2c7.6 0 13.8-6.2 13.8-13.8 0-7.6-6.2-13.8-13.8-13.8zm.1 17.5c-3.5-.2-3.8-2.9-3.8-3.8 0-.8.3-3.6 3.8-3.8 2 0 3.7 1.7 3.7 3.8 0 2.1-1.6 3.7-3.7 3.8z"/></svg>