<svg version="1.1" width="512" height="512" id="Layer_1" xmlns="http://www.w3.org/2000/svg" xmlns:xlink="http://www.w3.org/1999/xlink" x="0px" y="0px"
	 viewBox="0 0 512 512" style="enable-background:new 0 0 512 512;" xml:space="preserve">
<style type="text/css">
	.st0{fill:url(#r4_00000044137276554108495530000009846405561075554449_);}
	.st1{fill:#FFFFFF;}
	.st2{fill:#FFFFFF;stroke:#000000;stroke-width:13.52;stroke-miterlimit:10;}
	.st3{fill:#FFFFFF;stroke:#000000;stroke-width:13.731;stroke-miterlimit:10;}
</style>
<linearGradient id="r4_00000122684127729281391070000013385421097642293429_" gradientUnits="userSpaceOnUse" x1="-580.9899" y1="1322.6926" x2="-68.9899" y2="1322.6926" gradientTransform="matrix(-0.7071 0.7071 0.7071 0.7071 -1090.1068 -268.463)">
	<stop  offset="0" style="stop-color:#121212"/>
	<stop  offset="1" style="stop-color:#000000"/>
</linearGradient>
<path id="r4" style="fill:url(#r4_00000122684127729281391070000013385421097642293429_);" d="M128,0h256c70.7,0,128,57.3,128,128
	v256c0,70.7-57.3,128-128,128H128C57.3,512,0,454.7,0,384V128C0,57.3,57.3,0,128,0z"/>
<g>
	<defs>
		<path id="SVGID_1_" d="M128,0h256c70.7,0,128,57.3,128,128v256c0,70.7-57.3,128-128,128H128C57.3,512,0,454.7,0,384V128
			C0,57.3,57.3,0,128,0z"/>
	</defs>
	<clipPath id="SVGID_00000064335630730718877700000006338566460388372372_">
		<use xlink:href="#SVGID_1_"  style="overflow:visible;"/>
	</clipPath>
	<g style="clip-path:url(#SVGID_00000064335630730718877700000006338566460388372372_);enable-background:new    ;">
		
			<image style="overflow:visible;" width="1028" height="1028" xlink:href="73C14F7C.png"  transform="matrix(0.4981 0 0 0.4981 0 0)">
		</image>
	</g>
</g>
<path class="st1" d="M540.9,175.2"/>
<path class="st1" d="M903.4,590.3"/>
<path class="st1" d="M540.9,158.7"/>
<path class="st1" d="M540.9,155.6"/>
<path class="st2" d="M1023.8,571.4"/>
<g>
	<path class="st1" d="M141.7,473.1"/>
	<path class="st1" d="M137.6,120.6"/>
	<path class="st1" d="M141.7,407.8"/>
	<path class="st3" d="M63.9,241.6"/>
	<path class="st3" d="M249.8,437.8"/>
	<path class="st3" d="M194.1,70.2"/>
	<path class="st3" d="M245.5,62.6"/>
	<path class="st3" d="M63.9,223.5"/>
	<path class="st3" d="M63.9,220.1"/>
	<path class="st1" d="M498.3,309.3c3.8-35-43.9-66.9-77-89c-21.9-14.7-55.9-33.9-102-47.7c-5.2-10.6-11.7-21.2-19.1-31.4h26.9
		l0.8-0.2c16.8-4.2,30-20,32.3-37.5h5.8l1-0.3c17.2-5.5,30.6-22.4,32.5-41l0.8-7.6l-251.9-1.2c-15.5-0.8-31.2,0.4-47,3.7l-0.3,0.1
		c-44,11.3-88.7,56.6-84.9,118.4l0.4,6.6l6.4-0.1c9.4-0.2,18.9-0.4,28.5-0.5c1.8,16.8,8.4,32.4,19.2,45.1
		C60.3,275,67.7,322.9,91.5,362c34.3,56.1,89.7,71.9,115.9,79.4c59.2,16.8,108.2,3.8,129.2-2.1c57.2-16,88.7-46.5,139.6-95.7
		C489.2,331,496.9,322.1,498.3,309.3z M64.3,182.2c20.9-0.3,41.9-0.4,62.4-0.3l0.2,60.6c-15.3-1-30.3-7.7-42-19
		C73.5,212.5,66.3,198,64.3,182.2z M128,388.6c-10.1-9.4-18.9-20.2-26.2-32.2c-20.7-34-27.9-75.3-20.7-117.4
		c13.6,10.8,30.2,17,46.9,17.6V388.6z M128,167.8c-32.8-0.1-67.2,0.3-100.1,0.9c0.1-51.1,37.9-88.3,75.2-97.9
		c8.5-1.7,16.8-2.8,24.9-3.3V167.8z M308.8,182.5l1.5,3.1l3.3,0.7c43.8,9,89.7,34,126.4,66.9c-34.5,64.9-109.1,109.7-181,108.9
		V116.4C281.8,137,298.9,161.2,308.8,182.5z M325.5,127.2h-36.3c-7.2-8.4-15-16.4-23.3-23.8h80.7
		C344.3,114.4,335.9,124.3,325.5,127.2z M141.5,67.3L141.5,67.3c1.9,0,3.6,0.1,5.4,0.2h0.1c14.6,0.8,28.4,3.5,41.5,7.6
		c44,30.8,64.6,81,53.7,131.6c-10.9,50.8-49.2,87.9-100.7,98.3V67.3z M245.4,436.4c-11.3-1-23.1-3-35.3-6.3l-0.3-0.1
		c-26.1-5.7-49.1-15.9-68.3-30.2v-80.5c28.7-5.3,54.3-18.3,74.4-37.8c12.4-12,22.3-26.2,29.5-41.7V436.4z M245.4,121.2
		c-4.7-9.9-10.5-19.3-17.5-28c6.1,3.7,12,7.7,17.5,12V121.2z M243.2,85.8c-11-7.5-22.4-13.7-34.1-18.7L384.6,68
		c-3.8,10.7-12.5,18.5-20.8,21.5H248.4C246.7,88.3,244.9,87,243.2,85.8z M322.2,429.1L322.2,429.1c-16.5,4.7-38.3,8.6-63.3,8v-61
		c0.6,0,1.1,0,1.7,0c75,0,152.4-46.2,189.6-113.3c14.1,13.9,26.6,29,36.6,44.7C451.4,361.2,382.6,412.2,322.2,429.1z"/>
	<path class="st3" d="M249.8,368.2"/>
	<path class="st1" d="M145.4,66.8l-5.3,0v-0.2C141.8,66.6,143.6,66.7,145.4,66.8z"/>
	<path class="st1" d="M165.5,103.4l-0.3,0c-12,0.5-18.2,10-18.2,19.2c0,9.2,6.3,18.7,18.2,19.2h0.3c10.2,0,18.6-8.6,18.6-19.2
		C184.1,112,175.8,103.4,165.5,103.4z M165.6,127.8c-4.8-0.3-5.1-4.1-5.1-5.2c0-1.2,0.4-5,5.1-5.3c2.7,0.1,5,2.4,5,5.3
		C170.6,125.4,168.4,127.7,165.6,127.8z"/>
</g>
</svg>
