          <svg fill="white" version="1.1" xmlns="http://www.w3.org/2000/svg" xmlns:xlink="http://www.w3.org/1999/xlink" x="0px" y="0px"
                viewBox="0 0 404 489.4" style="enable-background:new 0 0 404 489.4;" xml:space="preserve">
          <g id="Layer_1">
               <path class="st0" d="M40.7,145.7"/>
               <path class="st0" d="M178.4,286.1"/>
               <path class="st0" d="M137.2,22.9"/>
               <path class="st0" d="M175.2,17.5"/>
               <path class="st0" d="M326.1,472.5"/>
               <path class="st0" d="M40.7,132.7"/>
               <path class="st0" d="M40.7,130.3"/>
               <path d="M363.4,189.2c-27.7-44-82.3-81.9-133.5-93c-3.8-7.6-8.6-15.2-14.2-22.5h20l0.6-0.1c12.4-3,22.2-14.3,24-26.9h4.3l0.7-0.2
                    c12.8-4,22.7-16,24.1-29.3l0.6-5.5l-186.6-0.8c-11.5-0.6-23.2,0.3-34.8,2.6l-0.2,0C35.6,21.7,2.5,54.2,5.3,98.4l0.3,4.8l4.8-0.1
                    c7-0.2,14-0.3,21.1-0.4c1.3,12,6.3,23.2,14.2,32.3c-7.7,34.6-2.3,68.9,15.4,96.9c18.4,29.2,48.1,48.8,85.8,56.8
                    c34.5,9,65.1,5.2,85.9-0.2c11.3,25.3,2.6,57.3-20.5,72.9l-5.1,3.4l118.4,113.8l3.4-3.2c39.1-36.5,63.6-86.9,68.8-141.8
                    C402.7,282.3,390.1,229.6,363.4,189.2z M40.9,103.1c15.5-0.2,31.1-0.3,46.2-0.2l0.1,43.4c-11.4-0.7-22.5-5.5-31.1-13.6
                    C47.7,124.8,42.4,114.4,40.9,103.1z M88.2,250.8c-7.5-6.7-14-14.4-19.4-23c-15.4-24.3-20.7-53.9-15.4-84.1
                    c10.1,7.8,22.4,12.2,34.8,12.6V250.8z M88.2,92.8c-24.3,0-49.8,0.2-74.2,0.7c0.1-36.6,28.1-63.2,55.7-70.1c6.3-1.2,12.4-2,18.5-2.4
                    V92.8z M222.1,103.3l1.1,2.2l2.5,0.5c32.4,6.5,66.5,24.4,93.7,47.9c-25.5,46.5-80.9,78.5-134.1,78V56
                    C202.1,70.8,214.8,88.1,222.1,103.3z M234.5,63.8h-26.9c-5.3-6-11.1-11.7-17.3-17h59.8C248.4,54.6,242.2,61.7,234.5,63.8z
                     M98.2,20.9L98.2,20.9c1.4,0,2.7,0.1,4,0.1h0.1c10.8,0.6,21.1,2.5,30.8,5.5c32.6,22,47.9,58,39.8,94.2
                    c-8.1,36.4-36.5,62.9-74.6,70.4V20.9z M175.2,285c-8.4-0.7-17.1-2.2-26.1-4.5l-0.2-0.1c-19.3-4.1-36.4-11.4-50.6-21.6v-57.7
                    c21.3-3.8,40.2-13.1,55.1-27.1c9.2-8.6,16.6-18.7,21.9-29.8V285z M175.2,59.4c-3.5-7.1-7.8-13.8-13-20c4.5,2.7,8.9,5.5,13,8.6V59.4
                    z M173.5,34.1c-8.2-5.3-16.6-9.8-25.3-13.3l130,0.6c-2.8,7.6-9.2,13.3-15.4,15.4h-85.5C176.1,35.9,174.8,35,173.5,34.1z
                     M232.1,279.9L232.1,279.9c-12.2,3.3-28.4,6.2-46.9,5.7v-43.7c0.4,0,0.8,0,1.2,0c55.5,0,113-33,140.5-81.1
                    c10.5,10,19.7,20.7,27.1,32C327.8,231.3,276.8,267.8,232.1,279.9z M254,397.9l-31.1-30c11-9,19-21.7,22.8-36.2
                    c4-15.1,2.9-30.8-3-44.7c11.8-3.8,24.1-9.2,36.3-15.9C301.7,318.9,283.8,370.7,254,397.9z M291.2,433.7l-29.9-28.8
                    c17-15.7,29.3-37.4,34.8-61.5c6-26.3,3-53.5-8.4-77.1c6.6-4,13.2-8.3,19.6-12.9c5-3.6,9.8-7.4,14.5-11.3
                    C359.8,310.2,336.8,391.7,291.2,433.7z M326.3,467.5l-27.9-26.8c25.3-23.5,43.4-57.5,49.9-93.7c6.9-38.9,0.2-78.3-18.8-111.5
                    c11.8-10.7,22.2-22.1,30.4-33.5C404.4,275.6,403.8,391.8,326.3,467.5z"/>
               <path class="st0" d="M178.4,236.3"/>
               <path d="M101,20.5l-4,0v-0.1C98.4,20.4,99.7,20.4,101,20.5z"/>
               <path d="M115.9,46.7l-0.2,0c-8.9,0.3-13.5,7.2-13.5,13.8c0,6.6,4.6,13.4,13.5,13.8h0.2c7.6,0,13.8-6.2,13.8-13.8
                    C129.7,52.9,123.5,46.7,115.9,46.7z M116,64.2c-3.5-0.2-3.8-2.9-3.8-3.8c0-0.8,0.3-3.6,3.8-3.8c2,0,3.7,1.7,3.7,3.8
                    C119.7,62.5,118.1,64.1,116,64.2z"/>
          </g>
          <g id="Layer_2">
          </g>
          </svg>