<svg version="1.1" id="Layer_1" xmlns="http://www.w3.org/2000/svg" x="0" y="0" viewBox="0 0 20 20" xml:space="preserve"><style>.st0{fill:#fff}</style><g id="Layer_1_00000147208281376765564620000006839222940559473342_"><path class="st0" d="M5 .9zM17.8 7.7c-.6-.8-1.5-1.5-2.4-2.2V6c.1.1.2.1.3.2-.1.1-.2.3-.3.4v.7c.2-.2.5-.5.7-.8.5.4 1 .8 1.3 1.3-.5.6-1.2 1.2-1.9 1.7v.5c.1-.1.3-.2.4-.3 1.8 2.8.7 6.1-1.5 7.8L13 16.3c.8-.6 1.4-1.5 1.7-2.5.3-1.1.1-2.2-.4-3.1.3-.2.6-.3.9-.5.1-.1.2-.1.3-.2v-.5c-1.2.8-2.6 1.5-3.9 1.8-.6.1-1.4.3-2.3.2V9.9h.1c2.3 0 4.7-1 6.1-2.5v-.7C14 8.4 11.6 9.5 9.2 9.5V2.3c.8.6 1.4 1.3 1.8 2h.1c1.4.2 3 .9 4.2 1.7v-.5c-1.2-.8-2.6-1.4-4-1.6-.2-.3-.4-.6-.7-.9h1c.6-.1 1.1-.6 1.2-1.1h.2c.6-.2 1.1-.6 1.2-1.2V.5h-9c-.6 0-1.1 0-1.7.1C2 .9.4 2.3.5 4.1v.2h1.2c.1.5.3.9.7 1.3-.3 1.4-.1 2.7.8 3.9.9 1.2 2.3 2 4.1 2.3 1.7.4 3.1.2 4.1 0 .5 1 .1 2.3-1 3l-.2.1 5.7 4.6.2-.1c1.9-1.5 3.1-3.5 3.3-5.8.3-2.1-.3-4.2-1.6-5.9zm-6.2-5h-1.3c-.3-.3-.6-.5-.9-.7h2.9c-.1.3-.4.6-.7.7zM2.2 4.3h2.2v1.8c-.5-.1-1-.3-1.4-.6-.4-.4-.7-.8-.8-1.2zm2.3 5.9c-.4-.2-.7-.5-.9-.9-.7-1-1-2.2-.7-3.4.5.3 1.1.5 1.7.5v3.8zm0-6.4H.9C.9 2.3 2.3 1.2 3.6 1c.3 0 .6-.1.9-.1v2.9zM5 .9h.2c.5 0 1 .1 1.5.2C8.2 2 9 3.5 8.6 5 8.2 6.4 6.8 7.5 5 7.8V.9zm3.1.8.6.3v.5c-.2-.3-.4-.6-.6-.8zm.6 9.9c-.4 0-.8-.1-1.3-.2-.9-.1-1.7-.4-2.4-.8V8.2c1-.2 1.9-.5 2.7-1.1.4-.3.8-.8 1.1-1.2v5.7zm.1-10c-.1 0-.1-.1-.2-.1-.4-.3-.8-.4-1.2-.6h6.3c-.1.3-.4.5-.7.6H8.8zm3.7 14.6L11 15c.5-.4.9-.9 1.1-1.5.2-.6.1-1.3-.1-1.8l1.8-.6c1 1.9.1 4-1.3 5.1zM16 19l-1.3-1c1.2-1 2.1-2.3 2.4-3.8.3-1.6 0-3.2-.9-4.5.6-.4 1.1-.9 1.5-1.4 2.1 3 2 7.7-1.7 10.7zM5.1.9h-.2.2z"/><path class="st0" d="M6.1 1.9c-.4.1-.6.3-.6.6s.2.5.6.5c.3 0 .6-.2.6-.5s-.2-.6-.6-.6zm0 .7c-.1 0-.1-.1-.1-.1s0-.1.2-.1c.1 0 .2.1.2.1s-.2.1-.3.1z"/></g></svg>